HIERARCHY
ROOT Hips
{
	OFFSET 0.000000 71.427986 0.000000
	CHANNELS 6 Xposition Yposition Zposition Xrotation Yrotation Zrotation
	JOINT Pelvis
	{
		OFFSET 0.000000 0.000000 0.000000
		CHANNELS 3 Xrotation Yrotation Zrotation
		JOINT LeftUpLeg
		{
			OFFSET 6.797100 -2.508499 -1.318700
			CHANNELS 3 Xrotation Yrotation Zrotation
			JOINT LeftLeg
			{
				OFFSET 0.069008 -29.241863 0.690200
				CHANNELS 3 Xrotation Yrotation Zrotation
				JOINT LeftFoot
				{
					OFFSET -0.069008 -29.568123 -0.266800
					CHANNELS 3 Xrotation Yrotation Zrotation
					JOINT LeftToeBase
					{
						OFFSET 3.145500 -8.631000 16.059900
						CHANNELS 3 Xrotation Yrotation Zrotation
						End Site
						{
							OFFSET 0.000000 18.501587 0.000000
						}
					}
				}
			}
			JOINT Left_ShortSleeve
			{
				OFFSET 0.265923 -10.480953 1.153800
				CHANNELS 3 Xrotation Yrotation Zrotation
				End Site
				{
					OFFSET 1.725763 19.823879 0.000000
				}
			}
		}
		JOINT RightUpLeg
		{
			OFFSET -6.797100 -2.508499 -1.318700
			CHANNELS 3 Xrotation Yrotation Zrotation
			JOINT RightLeg
			{
				OFFSET -0.082453 -29.241932 0.688000
				CHANNELS 3 Xrotation Yrotation Zrotation
				JOINT RightFoot
				{
					OFFSET 0.082453 -29.568058 -0.264600
					CHANNELS 3 Xrotation Yrotation Zrotation
					JOINT RightToeBase
					{
						OFFSET -3.115300 -8.682800 16.113400
						CHANNELS 3 Xrotation Yrotation Zrotation
						End Site
						{
							OFFSET 0.000000 18.567114 0.000000
						}
					}
				}
			}
			JOINT Right_ShortSleeve
			{
				OFFSET -0.265923 -10.480953 1.153800
				CHANNELS 3 Xrotation Yrotation Zrotation
				End Site
				{
					OFFSET -1.725766 19.823910 0.000000
				}
			}
		}
	}
	JOINT Spine
	{
		OFFSET 0.000000 13.368103 0.470500
		CHANNELS 3 Xrotation Yrotation Zrotation
		JOINT Spine1
		{
			OFFSET 0.147000 13.837402 0.538800
			CHANNELS 3 Xrotation Yrotation Zrotation
			JOINT Spine2
			{
				OFFSET 0.168000 16.242897 -1.435500
				CHANNELS 3 Xrotation Yrotation Zrotation
				JOINT Neck
				{
					OFFSET 0.217200 18.631500 -1.679100
					CHANNELS 3 Xrotation Yrotation Zrotation
					JOINT Head
					{
						OFFSET 0.000000 6.599396 1.385900
						CHANNELS 3 Xrotation Yrotation Zrotation
						JOINT Hat
						{
							OFFSET -0.532200 27.220596 -10.096100
							CHANNELS 3 Xrotation Yrotation Zrotation
							End Site
							{
								OFFSET 0.000000 22.029861 0.000000
							}
						}
						JOINT HairD
						{
							OFFSET -10.777400 17.437393 -1.325900
							CHANNELS 3 Xrotation Yrotation Zrotation
							JOINT HairD1
							{
								OFFSET -3.290299 -11.051193 1.062200
								CHANNELS 3 Xrotation Yrotation Zrotation
								End Site
								{
									OFFSET 0.000000 11.579437 0.000000
								}
							}
						}
						JOINT HairB
						{
							OFFSET -10.777400 17.437393 1.467900
							CHANNELS 3 Xrotation Yrotation Zrotation
							JOINT HairB1
							{
								OFFSET -1.561200 -12.956299 3.590200
								CHANNELS 3 Xrotation Yrotation Zrotation
								End Site
								{
									OFFSET 0.000000 13.534866 0.000000
								}
							}
						}
						JOINT HairA
						{
							OFFSET 9.713100 17.437393 1.467900
							CHANNELS 3 Xrotation Yrotation Zrotation
							JOINT HairA1
							{
								OFFSET 1.561200 -12.956299 3.590200
								CHANNELS 3 Xrotation Yrotation Zrotation
								End Site
								{
									OFFSET 0.000000 13.534866 0.000000
								}
							}
						}
						JOINT HairC
						{
							OFFSET 9.713100 17.437393 -1.325900
							CHANNELS 3 Xrotation Yrotation Zrotation
							JOINT HairC1
							{
								OFFSET 3.290300 -11.051193 1.062200
								CHANNELS 3 Xrotation Yrotation Zrotation
								End Site
								{
									OFFSET 0.000000 11.579437 0.000000
								}
							}
						}
					}
				}
				JOINT LeftShoulder
				{
					OFFSET 5.101800 15.108002 -2.763700
					CHANNELS 3 Xrotation Yrotation Zrotation
					JOINT LeftArm
					{
						OFFSET 9.825497 2.506317 -1.597400
						CHANNELS 3 Xrotation Yrotation Zrotation
						JOINT LeftForeArm
						{
							OFFSET 21.966244 0.000000 0.000000
							CHANNELS 3 Xrotation Yrotation Zrotation
							JOINT LeftHand
							{
								OFFSET 33.879036 0.000000 0.000000
								CHANNELS 3 Xrotation Yrotation Zrotation
								JOINT LeftHandThumb1
								{
									OFFSET 6.715286 -2.359680 3.363841
									CHANNELS 3 Xrotation Yrotation Zrotation
									JOINT LeftHandThumb2
									{
										OFFSET 2.507072 -1.447464 1.447461
										CHANNELS 3 Xrotation Yrotation Zrotation
										JOINT LeftHandThumb3
										{
											OFFSET 2.898338 -1.673355 1.673357
											CHANNELS 3 Xrotation Yrotation Zrotation
											End Site
											{
												OFFSET -0.295959 3.727692 -0.131651
											}
										}
									}
								}
								JOINT LeftHandIndex1
								{
									OFFSET 14.190811 -0.254547 3.840278
									CHANNELS 3 Xrotation Yrotation Zrotation
									JOINT LeftHandIndex2
									{
										OFFSET 3.551727 0.000000 -0.000000
										CHANNELS 3 Xrotation Yrotation Zrotation
										JOINT LeftHandIndex3
										{
											OFFSET 2.894196 0.000000 0.000000
											CHANNELS 3 Xrotation Yrotation Zrotation
											End Site
											{
												OFFSET -1.000603 2.690872 0.366626
											}
										}
									}
								}
								JOINT LeftHandMiddle1
								{
									OFFSET 13.776489 0.000000 0.000000
									CHANNELS 3 Xrotation Yrotation Zrotation
									JOINT LeftHandMiddle2
									{
										OFFSET 3.438232 0.000000 0.000000
										CHANNELS 3 Xrotation Yrotation Zrotation
										JOINT LeftHandMiddle3
										{
											OFFSET 3.691551 0.000000 0.000000
											CHANNELS 3 Xrotation Yrotation Zrotation
											End Site
											{
												OFFSET -1.082298 3.499527 0.457670
											}
										}
									}
								}
								JOINT LeftHandRing1
								{
									OFFSET 13.966164 -0.268127 -3.067488
									CHANNELS 3 Xrotation Yrotation Zrotation
									JOINT LeftHandRing2
									{
										OFFSET 3.162567 0.000000 0.000000
										CHANNELS 3 Xrotation Yrotation Zrotation
										JOINT LeftHandRing3
										{
											OFFSET 3.324348 0.000000 0.000000
											CHANNELS 3 Xrotation Yrotation Zrotation
											End Site
											{
												OFFSET -0.861900 3.184998 0.405154
											}
										}
									}
								}
								JOINT LeftHandPinky1
								{
									OFFSET 13.131393 -0.168503 -5.746925
									CHANNELS 3 Xrotation Yrotation Zrotation
									JOINT LeftHandPinky2
									{
										OFFSET 2.849182 0.000000 0.000000
										CHANNELS 3 Xrotation Yrotation Zrotation
										JOINT LeftHandPinky3
										{
											OFFSET 2.805038 0.000000 0.000000
											CHANNELS 3 Xrotation Yrotation Zrotation
											End Site
											{
												OFFSET -0.882500 2.642609 0.325652
											}
										}
									}
								}
							}
							JOINT Left_Sleeve
							{
								OFFSET 6.592125 -0.646545 0.805568
								CHANNELS 3 Xrotation Yrotation Zrotation
								End Site
								{
									OFFSET -0.000179 20.275787 -0.000000
								}
							}
						}
					}
				}
				JOINT RightShoulder
				{
					OFFSET -5.731700 15.108002 -2.763700
					CHANNELS 3 Xrotation Yrotation Zrotation
					JOINT RightArm
					{
						OFFSET -9.825497 2.506317 -1.597400
						CHANNELS 3 Xrotation Yrotation Zrotation
						JOINT RightForeArm
						{
							OFFSET -21.966242 0.000000 0.000000
							CHANNELS 3 Xrotation Yrotation Zrotation
							JOINT RightHand
							{
								OFFSET -33.879032 0.000000 0.000000
								CHANNELS 3 Xrotation Yrotation Zrotation
								JOINT RightHandThumb1
								{
									OFFSET -6.715286 -2.359680 3.363841
									CHANNELS 3 Xrotation Yrotation Zrotation
									JOINT RightHandThumb2
									{
										OFFSET -2.507072 -1.447464 1.447461
										CHANNELS 3 Xrotation Yrotation Zrotation
										JOINT RightHandThumb3
										{
											OFFSET -2.898338 -1.673355 1.673357
											CHANNELS 3 Xrotation Yrotation Zrotation
											End Site
											{
												OFFSET 0.295959 3.727692 -0.131651
											}
										}
									}
								}
								JOINT RightHandIndex1
								{
									OFFSET -14.190811 -0.254547 3.840278
									CHANNELS 3 Xrotation Yrotation Zrotation
									JOINT RightHandIndex2
									{
										OFFSET -3.551727 0.000000 -0.000000
										CHANNELS 3 Xrotation Yrotation Zrotation
										JOINT RightHandIndex3
										{
											OFFSET -2.894196 0.000000 0.000000
											CHANNELS 3 Xrotation Yrotation Zrotation
											End Site
											{
												OFFSET 1.000603 2.690872 0.366626
											}
										}
									}
								}
								JOINT RightHandMiddle1
								{
									OFFSET -13.776489 0.000000 0.000000
									CHANNELS 3 Xrotation Yrotation Zrotation
									JOINT RightHandMiddle2
									{
										OFFSET -3.438232 0.000000 0.000000
										CHANNELS 3 Xrotation Yrotation Zrotation
										JOINT RightHandMiddle3
										{
											OFFSET -3.691551 0.000000 0.000000
											CHANNELS 3 Xrotation Yrotation Zrotation
											End Site
											{
												OFFSET 1.082298 3.499527 0.457670
											}
										}
									}
								}
								JOINT RightHandRing1
								{
									OFFSET -13.966164 -0.268127 -3.067488
									CHANNELS 3 Xrotation Yrotation Zrotation
									JOINT RightHandRing2
									{
										OFFSET -3.162567 0.000000 0.000000
										CHANNELS 3 Xrotation Yrotation Zrotation
										JOINT RightHandRing3
										{
											OFFSET -3.324348 0.000000 0.000000
											CHANNELS 3 Xrotation Yrotation Zrotation
											End Site
											{
												OFFSET 0.861900 3.184998 0.405154
											}
										}
									}
								}
								JOINT RightHandPinky1
								{
									OFFSET -13.131393 -0.168503 -5.746925
									CHANNELS 3 Xrotation Yrotation Zrotation
									JOINT RightHandPinky2
									{
										OFFSET -2.849182 0.000000 0.000000
										CHANNELS 3 Xrotation Yrotation Zrotation
										JOINT RightHandPinky3
										{
											OFFSET -2.805038 0.000000 0.000000
											CHANNELS 3 Xrotation Yrotation Zrotation
											End Site
											{
												OFFSET 0.882500 2.642609 0.325652
											}
										}
									}
								}
							}
							JOINT Right_Sleeve
							{
								OFFSET -6.592125 -0.646545 0.805568
								CHANNELS 3 Xrotation Yrotation Zrotation
								End Site
								{
									OFFSET 0.000179 20.275787 -0.000000
								}
							}
						}
					}
				}
				JOINT Bind_Right_JacketString
				{
					OFFSET -3.534800 11.969597 7.200700
					CHANNELS 3 Xrotation Yrotation Zrotation
					JOINT Bind_Right_JacketString1
					{
						OFFSET -0.319900 -6.102600 2.794100
						CHANNELS 3 Xrotation Yrotation Zrotation
						End Site
						{
							OFFSET 0.000000 6.719452 0.000000
						}
					}
				}
				JOINT Bind_Left_JacketString
				{
					OFFSET 2.904800 11.969597 7.200700
					CHANNELS 3 Xrotation Yrotation Zrotation
					JOINT Bind_Left_JacketString1
					{
						OFFSET 0.364800 -5.904503 3.186800
						CHANNELS 3 Xrotation Yrotation Zrotation
						End Site
						{
							OFFSET 0.000000 6.719513 0.000000
						}
					}
				}
				JOINT HairE
				{
					OFFSET 5.915200 17.612701 -11.592200
					CHANNELS 3 Xrotation Yrotation Zrotation
					JOINT HairE1
					{
						OFFSET 0.289200 -7.171898 -1.284500
						CHANNELS 3 Xrotation Yrotation Zrotation
						End Site
						{
							OFFSET 0.000000 7.291756 0.000000
						}
					}
				}
				JOINT HairF
				{
					OFFSET -0.864800 17.612701 -11.592200
					CHANNELS 3 Xrotation Yrotation Zrotation
					JOINT HairF1
					{
						OFFSET 0.000000 -14.087097 -2.127501
						CHANNELS 3 Xrotation Yrotation Zrotation
						End Site
						{
							OFFSET 0.000000 14.246841 0.000000
						}
					}
				}
				JOINT HairG
				{
					OFFSET -8.087700 17.612701 -11.592200
					CHANNELS 3 Xrotation Yrotation Zrotation
					JOINT HairG1
					{
						OFFSET -0.293600 -6.081398 -0.910100
						CHANNELS 3 Xrotation Yrotation Zrotation
						End Site
						{
							OFFSET 0.000000 6.156120 0.000000
						}
					}
				}
			}
		}
	}
	JOINT Pouch
	{
		OFFSET 0.000000 4.394501 10.847300
		CHANNELS 3 Xrotation Yrotation Zrotation
		End Site
		{
			OFFSET 0.000000 21.880577 0.000000
		}
	}
	JOINT Bag
	{
		OFFSET -13.229000 4.813004 -0.593300
		CHANNELS 3 Xrotation Yrotation Zrotation
		End Site
		{
			OFFSET 0.000000 21.880577 0.000000
		}
	}
	JOINT OccupyGuyFacialAnim_Joint
	{
		OFFSET 1.000000 -70.206398 -1.655000
		CHANNELS 3 Xrotation Yrotation Zrotation
		End Site
		{
			OFFSET 0.000000 21.880577 0.000000
		}
	}
}
MOTION
Frames: 4
Frame Time: 0.033333
0.157221 67.028122 -0.268865 24.338652 -66.799189 19.526022 -0.000000 0.000001 -0.000000 -49.107998 10.284021 12.642488 79.074343 -1.407595 -3.156192 4.911002 0.013061 1.333817 -0.000001 0.000001 -0.000002 -0.000000 0.000001 -0.000001 -35.871033 -0.458573 10.151384 34.896826 -1.541739 -1.109266 -8.175473 1.324612 -6.078084 -0.000000 -0.000000 -0.000000 -0.000002 -0.000000 -0.000003 12.714741 -4.790149 1.896430 3.290022 -1.558073 0.778655 3.299949 -1.534982 0.794586 -10.175234 53.519730 -5.072537 5.294836 5.485231 -5.902913 -0.000000 -0.000000 -0.000000 -0.000000 -0.000000 -0.000000 -0.000000 -0.000000 0.000000 -0.000000 -0.000000 -0.000000 -0.000001 -0.000000 -0.000000 -0.000000 -0.000000 -0.000000 -0.000001 -0.000000 -0.000000 -0.000000 -0.000000 -0.000000 -0.000000 -0.000000 -0.000000 5.461269 -2.303635 10.374988 -58.710585 -7.872275 -11.657820 0.196947 -12.597553 -0.238281 -30.411605 -0.936534 3.118217 40.109883 -15.297105 -0.360543 5.639898 28.097733 11.338804 0.000001 -0.000002 -0.000001 6.882259 2.840023 -61.140554 8.247929 7.639979 -89.897809 -0.000000 -0.000001 -0.000002 -2.345583 4.688875 -62.655320 8.754072 9.897066 -87.051191 0.000001 0.000001 -0.000003 -9.042506 10.045614 -60.766240 8.523953 9.508857 -66.892824 0.000001 0.000000 -0.000004 -17.946901 14.755022 -51.485901 8.868464 8.667070 -84.812071 0.000004 -0.000001 -0.000001 -0.000001 -0.000002 -0.000001 -2.276883 2.080767 -17.370482 -50.918732 40.936087 46.663839 3.444321 137.365773 -1.429336 -64.610919 -21.703087 -29.761036 0.277521 -1.521457 -1.570584 7.169000 -41.689672 -15.773538 -0.000004 -0.000002 -0.000002 6.412839 -12.738389 14.389475 9.941724 -7.465168 101.743277 0.000001 0.000002 0.000001 2.653165 -11.302304 44.730909 9.916088 -9.880678 94.351209 0.000003 0.000000 0.000001 2.140182 -7.454435 61.764991 9.609274 -8.992473 89.388687 0.000003 -0.000000 0.000002 -4.886694 -23.798109 68.396114 13.518251 -7.949293 112.864908 -0.000001 -0.000001 -0.000003 0.000001 0.000001 0.000001 -0.000001 -0.000000 0.000000 -0.000001 -0.000000 -0.000000 -0.000001 -0.000000 -0.000000 -0.000001 -0.000000 -0.000000 -0.000001 -0.000000 0.000000 -0.000001 -0.000000 0.000000 -0.000001 -0.000000 -0.000000 -0.000001 -0.000000 -0.000000 -0.000001 -0.000000 0.000000 -0.000001 -0.000000 0.000000 -0.000000 0.000001 -0.000000 -0.000000 0.000001 -0.000000 -0.000000 0.000001 -0.000000 
-0.040650 67.472748 1.848302 24.099610 -66.645011 19.341965 -0.000000 0.000001 -0.000000 -50.141050 5.973123 15.744648 76.999434 -0.417328 -3.066955 3.594787 -0.006040 -0.039086 0.000000 0.000001 0.000001 -0.000000 0.000001 -0.000000 -34.618264 1.608431 8.669477 34.210853 -2.422880 -1.171447 -9.014393 0.987317 -3.795800 -0.000000 0.000000 0.000000 -0.000003 -0.000000 -0.000002 12.325212 -4.659383 1.387232 3.311964 -1.434051 0.531391 3.320662 -1.417733 0.547143 -10.289041 53.336384 -4.847793 4.908403 5.017187 -5.296324 -0.000001 0.000001 -0.000000 -0.000001 0.000001 -0.000000 -0.000001 0.000001 0.000000 -0.000001 0.000001 -0.000000 -0.000002 -0.000001 0.000000 -0.000001 0.000001 -0.000000 -0.000002 -0.000001 0.000000 -0.000001 0.000001 -0.000000 -0.000001 0.000001 -0.000000 5.500952 -2.202549 10.322539 -58.403657 -9.068868 -11.556527 -2.035771 -12.542201 -0.846547 -28.349817 -0.809636 3.246546 40.109880 -15.297114 -0.360543 5.639901 28.097744 11.338805 0.000000 -0.000000 0.000000 6.882258 2.840021 -61.140561 8.247926 7.639984 -89.897816 -0.000000 -0.000001 -0.000004 -2.345590 4.688875 -62.655320 8.754073 9.897069 -87.051191 0.000002 0.000000 -0.000001 -9.042505 10.045615 -60.766240 8.523954 9.508854 -66.892824 -0.000003 -0.000001 -0.000003 -17.946901 14.755020 -51.485904 8.868465 8.667072 -84.812071 -0.000003 0.000000 0.000001 -0.000001 -0.000001 -0.000000 -2.450710 1.894259 -17.016207 -49.639916 41.144476 46.816838 4.374331 138.101944 -2.018071 -63.220497 -21.624020 -30.733860 0.277523 -1.521454 -1.570585 7.169000 -41.689678 -15.773538 -0.000000 -0.000001 0.000001 6.412840 -12.738389 14.389475 9.941724 -7.465173 101.743277 -0.000003 0.000000 0.000000 2.653164 -11.302304 44.730909 9.916091 -9.880682 94.351202 0.000001 -0.000001 -0.000001 2.140181 -7.454434 61.764991 9.609272 -8.992469 89.388694 -0.000000 -0.000001 -0.000000 -4.886695 -23.798105 68.396114 13.518251 -7.949293 112.864908 -0.000001 0.000000 -0.000001 -0.000001 0.000001 0.000002 0.000000 -0.000001 0.000000 0.000000 -0.000001 -0.000000 0.000000 -0.000001 -0.000000 0.000000 -0.000001 -0.000000 0.000000 -0.000001 0.000000 0.000000 -0.000001 0.000000 0.000000 -0.000001 -0.000000 0.000000 -0.000001 -0.000000 0.000000 -0.000001 0.000000 0.000000 -0.000001 0.000000 -0.000000 0.000001 -0.000000 -0.000000 0.000001 -0.000000 -0.000000 0.000001 -0.000000 
-0.254112 67.870277 4.122718 23.772233 -66.582829 19.066325 -0.000001 -0.000001 -0.000000 -49.356204 1.846364 18.609351 71.400141 0.349262 -2.955769 4.071687 0.054133 -1.500429 0.000000 -0.000002 0.000001 -0.000002 0.000003 -0.000000 -33.003942 3.392061 6.909394 33.390073 -1.643815 -1.091453 -9.840106 -0.609247 -1.827700 -0.000000 0.000001 0.000000 0.000003 0.000000 -0.000000 12.019971 -4.482299 0.941245 3.420454 -1.350341 0.218249 3.426714 -1.346707 0.233684 -10.362084 53.130938 -4.658512 4.381116 4.669848 -4.689853 0.000003 0.000002 0.000000 0.000003 0.000002 0.000000 0.000003 0.000002 0.000001 0.000003 0.000002 -0.000000 -0.000000 0.000002 -0.000000 0.000003 0.000002 -0.000000 -0.000000 0.000002 -0.000000 0.000003 0.000002 0.000000 0.000003 0.000002 0.000000 5.607675 -1.932997 10.181562 -58.310472 -10.369087 -11.436303 -1.659015 -12.560662 -0.744259 -28.845477 -0.616386 3.338375 40.109880 -15.297109 -0.360545 5.639899 28.097735 11.338802 -0.000001 0.000001 0.000000 6.882257 2.840023 -61.140561 8.247928 7.639986 -89.897816 0.000004 -0.000000 0.000001 -2.345586 4.688878 -62.655320 8.754075 9.897064 -87.051191 0.000002 0.000003 -0.000004 -9.042507 10.045615 -60.766240 8.523955 9.508858 -66.892824 -0.000000 0.000000 0.000002 -17.946903 14.755017 -51.485901 8.868463 8.667072 -84.812078 0.000001 0.000001 0.000001 -0.000001 -0.000001 -0.000001 -2.587968 1.626104 -16.697555 -48.451070 41.467345 47.091351 5.007906 138.804621 -2.405449 -61.727766 -21.455998 -31.588197 0.277523 -1.521453 -1.570584 7.168998 -41.689672 -15.773542 0.000004 0.000003 0.000000 6.412841 -12.738391 14.389474 9.941725 -7.465171 101.743277 -0.000001 -0.000001 0.000000 2.653165 -11.302305 44.730905 9.916090 -9.880683 94.351209 0.000000 -0.000003 0.000002 2.140182 -7.454434 61.764984 9.609268 -8.992467 89.388687 -0.000000 -0.000001 0.000004 -4.886691 -23.798107 68.396114 13.518249 -7.949294 112.864901 -0.000000 -0.000000 0.000000 -0.000000 -0.000002 0.000001 0.000000 0.000000 -0.000000 0.000000 0.000000 -0.000000 0.000000 0.000000 -0.000000 0.000000 0.000000 -0.000000 0.000000 0.000000 -0.000000 0.000000 0.000000 -0.000000 0.000000 0.000000 -0.000000 0.000000 0.000000 -0.000000 0.000000 0.000000 -0.000000 0.000000 0.000000 -0.000000 -0.000001 -0.000001 -0.000000 -0.000001 -0.000001 -0.000000 -0.000001 -0.000001 -0.000000 
-0.464272 68.018860 6.465547 23.384249 -66.593743 18.744802 -0.000000 -0.000001 0.000000 -46.919233 -1.567568 21.241695 63.428197 1.443502 -2.747477 4.606686 0.095241 -2.558981 0.000003 0.000000 0.000001 -0.000000 -0.000003 -0.000002 -31.726150 4.780890 5.065496 33.549473 -1.780979 -1.108689 -11.167043 -1.019671 0.327030 0.000000 -0.000000 0.000000 -0.000000 -0.000001 -0.000001 11.901015 -4.251820 0.616679 3.458539 -1.262919 -0.071488 3.463455 -1.273442 -0.054590 -10.441789 52.917096 -4.466600 3.993957 4.341667 -4.262704 0.000002 -0.000001 0.000001 0.000002 -0.000001 0.000001 0.000002 -0.000001 0.000001 0.000002 -0.000001 0.000001 0.000000 -0.000001 0.000001 0.000002 -0.000001 0.000001 0.000000 -0.000001 0.000001 0.000002 -0.000001 0.000001 0.000002 -0.000001 0.000001 5.764094 -1.543181 9.974784 -58.324454 -11.639179 -11.507901 -0.036980 -12.620533 -0.307157 -30.560332 -0.377377 3.411657 40.109883 -15.297109 -0.360543 5.639899 28.097732 11.338800 0.000000 0.000001 0.000000 6.882265 2.840024 -61.140554 8.247928 7.639980 -89.897809 -0.000000 0.000005 -0.000001 -2.345580 4.688875 -62.655320 8.754077 9.897063 -87.051191 0.000004 -0.000002 -0.000003 -9.042500 10.045617 -60.766240 8.523957 9.508856 -66.892824 0.000001 0.000000 -0.000003 -17.946892 14.755019 -51.485911 8.868463 8.667072 -84.812064 0.000001 -0.000003 0.000002 -0.000002 0.000001 -0.000000 -2.688341 1.305821 -16.424817 -47.437371 41.848887 47.336998 4.946689 139.458393 -2.344894 -60.899401 -21.368853 -32.422857 0.277523 -1.521454 -1.570585 7.169002 -41.689675 -15.773536 0.000002 0.000002 0.000003 6.412847 -12.738392 14.389477 9.941725 -7.465171 101.743277 -0.000004 0.000000 -0.000001 2.653167 -11.302305 44.730909 9.916090 -9.880682 94.351209 -0.000001 -0.000000 -0.000001 2.140185 -7.454435 61.764991 9.609269 -8.992471 89.388687 -0.000002 -0.000001 0.000001 -4.886690 -23.798105 68.396114 13.518251 -7.949294 112.864908 -0.000002 0.000002 0.000001 -0.000001 0.000000 0.000001 0.000000 -0.000001 0.000000 0.000000 -0.000000 -0.000001 0.000000 -0.000001 0.000000 0.000000 -0.000001 0.000000 0.000000 -0.000001 0.000000 0.000000 -0.000000 -0.000001 0.000000 -0.000001 0.000000 0.000000 -0.000001 0.000000 0.000000 -0.000001 0.000000 0.000000 -0.000000 -0.000001 -0.000000 -0.000001 0.000000 -0.000000 -0.000001 0.000000 -0.000000 -0.000001 0.000000 
